<svg id="Layer_1" data-name="Layer 1" xmlns="http://www.w3.org/2000/svg" xmlns:xlink="http://www.w3.org/1999/xlink" viewBox="0 0 385.72 180.87"><defs><style>.cls-1,.cls-2,.cls-3{fill:none;stroke-linecap:round;stroke-linejoin:round;stroke-width:5px;}.cls-1{stroke:url(#linear-gradient);}.cls-2{stroke:url(#linear-gradient-2);}.cls-3{stroke:url(#linear-gradient-3);}.cls-4{isolation:isolate;}.cls-5{fill:#101b43;}</style><linearGradient id="linear-gradient" x1="34.36" y1="678.31" x2="155.18" y2="678.31" gradientTransform="translate(0 -588)" gradientUnits="userSpaceOnUse"><stop offset="0" stop-color="#0855a3"/><stop offset="1" stop-color="#0f1b43"/></linearGradient><linearGradient id="linear-gradient-2" x1="49.51" y1="686.31" x2="140.07" y2="686.31" xlink:href="#linear-gradient"/><linearGradient id="linear-gradient-3" x1="53.34" y1="679.2" x2="112.76" y2="679.2" xlink:href="#linear-gradient"/></defs><path class="cls-1" d="M49.29,54.5a57.8,57.8,0,1,0,23-17.5l6.94,14"/><path class="cls-2" d="M116.48,127.69A42.7,42.7,0,1,0,96,133.64l-1.26,14.7"/><polyline class="cls-3" points="110.26 107.2 88.11 106.89 88.57 73.67 55.84 108.74"/><g class="cls-4"><path class="cls-5" d="M204.7,94.92a11.89,11.89,0,0,1-4.34,4.66,12.31,12.31,0,0,1-12.52,0,12,12,0,0,1-4.34-4.66,14.62,14.62,0,0,1,0-13.18,11.89,11.89,0,0,1,4.34-4.66,12.31,12.31,0,0,1,12.52,0,12,12,0,0,1,4.34,4.66,14.62,14.62,0,0,1,0,13.18Zm-3.22-11.47a8.42,8.42,0,0,0-3-3.42,7.86,7.86,0,0,0-4.37-1.24A8,8,0,0,0,189.73,80a8.37,8.37,0,0,0-3,3.4,11.63,11.63,0,0,0,0,9.79,8.42,8.42,0,0,0,3,3.42,8.32,8.32,0,0,0,8.74,0,8.49,8.49,0,0,0,3-3.42,11.54,11.54,0,0,0,0-9.75Z"/><path class="cls-5" d="M224.41,76.76A7.29,7.29,0,0,1,227,79.55a8.11,8.11,0,0,1,1,3.89,8.29,8.29,0,0,1-1,3.92,7.44,7.44,0,0,1-2.57,2.84,6.36,6.36,0,0,1-3.53,1h-6.77v8a1.72,1.72,0,0,1-.47,1.22,1.7,1.7,0,0,1-2.4,0,1.75,1.75,0,0,1-.45-1.24V77.46a1.67,1.67,0,0,1,.5-1.22,1.64,1.64,0,0,1,1.22-.5h8.35A6.36,6.36,0,0,1,224.41,76.76Zm-1.73,10.58A4.38,4.38,0,0,0,224,85.67a5.3,5.3,0,0,0,.49-2.23,4.69,4.69,0,0,0-1.06-3.11,3.21,3.21,0,0,0-2.54-1.28h-6.77V88h6.77A3,3,0,0,0,222.68,87.34Z"/><path class="cls-5" d="M247.9,98.12a1.68,1.68,0,0,1,.49,1.19,1.5,1.5,0,0,1-.49,1.17,1.75,1.75,0,0,1-1.24.45H234.13a1.71,1.71,0,0,1-1.72-1.72V77.46a1.67,1.67,0,0,1,.5-1.22,1.64,1.64,0,0,1,1.22-.5h12.53a1.72,1.72,0,0,1,1.24.47,1.63,1.63,0,0,1,.49,1.22,1.5,1.5,0,0,1-.49,1.17,1.77,1.77,0,0,1-1.24.45H236v7.34H245a1.72,1.72,0,0,1,1.24.47,1.6,1.6,0,0,1,.49,1.19,1.5,1.5,0,0,1-.49,1.19,1.8,1.8,0,0,1-1.24.43H236v8h10.69A1.64,1.64,0,0,1,247.9,98.12Z"/><path class="cls-5" d="M272.86,76.18a1.56,1.56,0,0,1,.43,1.13V99.16a1.73,1.73,0,0,1-.49,1.26,1.64,1.64,0,0,1-1.24.5,2.27,2.27,0,0,1-.77-.13,1.31,1.31,0,0,1-.59-.38L256.05,82V99.33a1.52,1.52,0,0,1-.45,1.13,1.54,1.54,0,0,1-1.13.45,1.48,1.48,0,0,1-1.12-.45,1.56,1.56,0,0,1-.43-1.13V77.46a1.66,1.66,0,0,1,.49-1.24,1.68,1.68,0,0,1,1.21-.49,2.15,2.15,0,0,1,.83.16,1.43,1.43,0,0,1,.61.45l14.11,18.47V77.31a1.52,1.52,0,0,1,.45-1.13,1.54,1.54,0,0,1,1.13-.45A1.46,1.46,0,0,1,272.86,76.18Z"/></g><g class="cls-4"><path class="cls-5" d="M294.37,99.09a1,1,0,0,1,.31.76,1,1,0,0,1-.31.77,1.06,1.06,0,0,1-.77.31H280.75a1,1,0,0,1-.77-.31,1.07,1.07,0,0,1-.31-.77v-23A1,1,0,0,1,280,76a1.17,1.17,0,0,1,.83-.31,1.08,1.08,0,0,1,.79.31,1,1,0,0,1,.32.77v22h11.66A1.08,1.08,0,0,1,294.37,99.09Z"/></g><g class="cls-4"><path class="cls-5" d="M317.68,99.92a1,1,0,0,1-.32.76,1.13,1.13,0,0,1-.76.29,1.05,1.05,0,0,1-.63-.2,1.24,1.24,0,0,1-.41-.52l-2.7-6.59h-11.7l-2.66,6.59a1,1,0,0,1-1,.72,1,1,0,0,1-.76-.25,1.09,1.09,0,0,1-.29-.68v-.11a.89.89,0,0,1,0-.32L306,76.35a1.07,1.07,0,0,1,1.08-.72,1.05,1.05,0,0,1,.63.2,1.24,1.24,0,0,1,.41.52l9.47,23.15A2.39,2.39,0,0,1,317.68,99.92ZM302,91.53h10l-5-12.31Z"/></g><g class="cls-4"><path class="cls-5" d="M351.3,76a1,1,0,0,1,.32.79l-.07.47-8,23a.92.92,0,0,1-.38.5,1,1,0,0,1-.59.18,1,1,0,0,1-1.08-.68l-6.23-15.37-6.23,15.37a1.11,1.11,0,0,1-1.08.68,1,1,0,0,1-.59-.18.8.8,0,0,1-.34-.5l-8-23a1,1,0,0,1,.27-1.24,1.28,1.28,0,0,1,.81-.31,1.2,1.2,0,0,1,.65.18,1,1,0,0,1,.4.5l7.06,20.59,6.05-15.08a1,1,0,0,1,1-.68.91.91,0,0,1,.63.16,1.24,1.24,0,0,1,.41.52l6,15.08,7-20.59a1.06,1.06,0,0,1,1.08-.68A1.15,1.15,0,0,1,351.3,76Z"/></g></svg>